<svg xmlns="http://www.w3.org/2000/svg" viewBox="0 0 80.58 80.56"><defs><style>.cls-1{fill:#fff;}</style></defs><title>Menu 3</title><g id="Layer_2" data-name="Layer 2"><g id="Capa_1" data-name="Capa 1"><g id="rag4Ou.tif"><path class="cls-1" d="M80.58,25.3a1.62,1.62,0,0,1-1.49.69H69.9c-1.05,0-1.05,0-1.05,1v9.11c0,1.28-.36,1.65-1.62,1.65h-11c-1.27,0-1.63-.36-1.63-1.64,0-3.09,0-6.18,0-9.27,0-.69-.2-.9-.89-.89-3.09,0-6.18,0-9.27,0-1.28,0-1.64-.36-1.64-1.63v-11c0-1.26.37-1.62,1.66-1.62h9.11c1,0,1,0,1-1.05,0-3.06,0-6.13,0-9.19A1.65,1.65,0,0,1,55.28,0H68.17a1.64,1.64,0,0,1,.69,1.48c0,3.14,0,6.28,0,9.41,0,.65.2.86.85.85,3.14,0,6.27,0,9.41,0a1.61,1.61,0,0,1,1.48.7Zm-14.2,4.46V25.21c0-1.34.35-1.69,1.67-1.69,3.09,0,6.18,0,9.27,0,.63,0,.87-.17.86-.84q0-3.81,0-7.62c0-.7-.22-.89-.9-.88-3.09,0-6.19,0-9.28,0-1.26,0-1.62-.37-1.62-1.64,0-3.09,0-6.19,0-9.28,0-.7-.22-.89-.9-.88-2.49,0-5,0-7.46,0-.75,0-1,.18-1,1,0,3.06,0,6.13,0,9.19,0,1.28-.36,1.65-1.62,1.65-3.12,0-6.23,0-9.35,0-.61,0-.83.16-.82.8q0,3.84,0,7.7c0,.66.21.85.85.84,3.1,0,6.19,0,9.28,0,1.31,0,1.66.35,1.66,1.68,0,3.09,0,6.18,0,9.27,0,.58.11.86.77.85,2.6,0,5.19,0,7.78,0,.66,0,.79-.26.78-.84C66.37,32.91,66.38,31.34,66.38,29.76Z"/><path class="cls-1" d="M27.87,18.87a21,21,0,0,1,3.05-5.37,6.66,6.66,0,0,1,.84-.93,1.14,1.14,0,0,1,1.63,0,1.17,1.17,0,0,1,.22,1.57,4.24,4.24,0,0,1-.51.69,17.82,17.82,0,0,0-4,11.09c0,1,0,2,0,3.07,0,.61.1.75.75.56A20.09,20.09,0,0,1,55.65,47.3a33.47,33.47,0,0,1-6.17,23,25.16,25.16,0,0,1-9.61,8.61,15.56,15.56,0,0,1-11.31,1,1.85,1.85,0,0,0-1.07,0,15.94,15.94,0,0,1-14.92-3.08C5.62,71.3,1.73,64,.4,55.31a27.27,27.27,0,0,1,1-13.26,19.44,19.44,0,0,1,3.86-6.6c.64-.73,1.41-.86,2-.35a1.28,1.28,0,0,1,0,1.95A18.85,18.85,0,0,0,2.63,48.83,31.25,31.25,0,0,0,8.38,68.74a23.79,23.79,0,0,0,7.79,7.41,13.17,13.17,0,0,0,10.9,1.2,2.19,2.19,0,0,1,1.45-.1c5,1.67,9.48.57,13.47-2.65a30.22,30.22,0,0,0,10.88-19,25.38,25.38,0,0,0-.64-12.42A17.39,17.39,0,0,0,37.08,31.28a16.15,16.15,0,0,0-8.26,1.38,2,2,0,0,1-1.73,0c-5.48-2.41-10.76-1.82-15.89,1-1.12.62-1.82.62-2.27-.09s-.15-1.43,1-2.1a19.79,19.79,0,0,1,16-2c.57.17.74.06.74-.54,0-1.7.05-1.7-1.73-2A20.09,20.09,0,0,1,8.17,11.24a16.38,16.38,0,0,1-.41-3.82c0-1.2.45-1.66,1.68-1.62A19.8,19.8,0,0,1,17.2,7.56,20.1,20.1,0,0,1,27.65,18.37Zm-17-10.42c-.42-.12-.55.12-.51.51s.09.72.15,1.08A17.66,17.66,0,0,0,25.89,24.55c.49.05.64-.11.58-.54-.09-.65-.17-1.3-.32-1.93A17.62,17.62,0,0,0,10.89,8.45Z"/><path class="cls-1" d="M29.22,49.58c0,4,0,8,0,11.94,0,1.65-.53,2.11-2.16,1.89a8.31,8.31,0,0,1-1.3-16.3c.67-.18.92-.45.9-1.16,0-2.49,0-5,0-7.47a1.13,1.13,0,0,0-.7-1.15,12.71,12.71,0,0,0-18.42,9.9C6.47,56.15,9.29,63.74,15.71,70a10.54,10.54,0,0,0,6.77,3.3,9,9,0,0,0,3.76-.64c.42-.16.41-.49.41-.84,0-1.44,0-2.88,0-4.32a3.65,3.65,0,0,1,.12-.93,1.22,1.22,0,0,1,2.33,0,3.12,3.12,0,0,1,.12.85c0,1.84,0,3.67,0,5.5,0,1.1-.26,1.4-1.25,1.82-5.27,2.25-9.83,1-13.87-2.77A28.54,28.54,0,0,1,4.93,53.6c-.43-3.92-.31-7.83,1.48-11.45,2.69-5.44,7.15-8.3,13.2-8.74a15.83,15.83,0,0,1,8.82,2.33,1.65,1.65,0,0,1,.8,1.67Q29.21,43.5,29.22,49.58Zm-2.57,5.55c0-1.64,0-3.29,0-4.93,0-.55-.17-.69-.71-.51a5.82,5.82,0,0,0,0,10.89c.64.22.77,0,.76-.58C26.63,58.38,26.65,56.75,26.65,55.13Z"/><path class="cls-1" d="M46.1,46.52a1.24,1.24,0,1,1-1.22-1.27A1.26,1.26,0,0,1,46.1,46.52Z"/><path class="cls-1" d="M40.19,52.47a1.26,1.26,0,0,1-1.28-1.21,1.24,1.24,0,1,1,1.28,1.21Z"/><path class="cls-1" d="M35.44,38.23A1.28,1.28,0,0,1,34.21,37a1.27,1.27,0,0,1,2.53.07A1.27,1.27,0,0,1,35.44,38.23Z"/></g></g></g></svg>