<svg xmlns="http://www.w3.org/2000/svg" viewBox="0 0 66.92 66.91"><defs><style>.cls-1{fill:#fff;}</style></defs><title>Menu 5</title><g id="Layer_2" data-name="Layer 2"><g id="Capa_1" data-name="Capa 1"><g id="ldh0uu.tif"><path class="cls-1" d="M50.42,0H52.1a3.36,3.36,0,0,1,2.54,3.61c0,.62.23.81.82.8,1.95,0,3.9,0,5.85,0A5.53,5.53,0,0,1,66.91,10q0,25.62,0,51.25a5.53,5.53,0,0,1-5.66,5.63q-27.81,0-55.64,0a5.76,5.76,0,0,1-1.1-.08A5.72,5.72,0,0,1,0,62.4V8.91C1,5.71,2.83,4.4,6.21,4.4c1.74,0,3.47,0,5.21,0,.54,0,.79-.14.8-.74A3.37,3.37,0,0,1,14.77,0h1.67A3.4,3.4,0,0,1,19,3.67c0,.54.19.74.73.74h9.59c.54,0,.72-.2.73-.74A3.4,3.4,0,0,1,32.59,0h1.68a3.4,3.4,0,0,1,2.55,3.67c0,.54.19.74.73.74h9.59c.54,0,.72-.2.73-.74A3.4,3.4,0,0,1,50.42,0Zm-17,20.11h-30c-1.13,0-1.13,0-1.13,1.16V60.48c0,.26,0,.51,0,.77a3.29,3.29,0,0,0,2.94,3.27,7.65,7.65,0,0,0,1.18.06H59c.72,0,1.44,0,2.16,0a3.31,3.31,0,0,0,2.95-1.66,4.43,4.43,0,0,0,.48-2.29V21.2c0-1.09,0-1.09-1.13-1.09Zm0-2.33q15.12,0,30.22,0c.5,0,1,.06,1-.71,0-2.3,0-4.6,0-6.89a3.31,3.31,0,0,0-3.45-3.43c-1.93,0-3.85,0-5.78,0-.52,0-.7.21-.69.71,0,.89,0,1.77,0,2.65a3.39,3.39,0,0,1-6.78,0c0-.9,0-1.81,0-2.71,0-.48-.19-.67-.67-.66q-4.83,0-9.68,0c-.5,0-.71.19-.7.7,0,.9,0,1.81,0,2.71a3.39,3.39,0,0,1-6.78,0c0-.89,0-1.77,0-2.65,0-.53-.17-.75-.72-.75q-4.82,0-9.61,0c-.56,0-.73.23-.72.76,0,.88,0,1.76,0,2.64a3.39,3.39,0,0,1-6.78,0c0-.88,0-1.76,0-2.64,0-.59-.21-.78-.78-.77-1.81,0-3.62,0-5.43,0a3.41,3.41,0,0,0-3.72,3.73v6.27c0,1,0,1,1.05,1ZM52.32,6.72c0-1,0-2,0-3s-.42-1.38-1-1.39-1.06.51-1.07,1.36q0,3,0,6c0,.85.45,1.38,1.08,1.36s1-.54,1-1.4S52.32,7.69,52.32,6.72ZM34.49,6.64h0V4.07c0-.17,0-.33,0-.49-.05-.75-.46-1.25-1.05-1.25a1.11,1.11,0,0,0-1.06,1.23q0,3.14,0,6.27A1.1,1.1,0,0,0,33.46,11c.58,0,1-.51,1-1.26C34.5,8.73,34.49,7.69,34.49,6.64Zm-20,0c0,1,0,2.09,0,3.13,0,.76.43,1.25,1,1.27s1.08-.49,1.08-1.28q0-3.06,0-6.12c0-.8-.44-1.32-1-1.31s-1,.51-1,1.31C14.53,4.64,14.54,5.64,14.54,6.64Z"/><path class="cls-1" d="M45.63,45.73a1.76,1.76,0,0,1-1-.32c-1.33-.73-2.65-1.45-4-2.2a1.06,1.06,0,0,0-1.17,0c-1.31.75-2.63,1.47-4,2.2a1.44,1.44,0,0,1-1.63.12c-.57-.38-.56-.94-.46-1.55.29-1.6.5-3.21.79-4.81a1.12,1.12,0,0,0-.35-1.11c-1.11-1.12-2.2-2.27-3.31-3.39a1.43,1.43,0,0,1-.53-1.48c.2-.63.74-.79,1.31-.88,1.49-.23,3-.47,4.47-.67a1.14,1.14,0,0,0,1-.75c.65-1.43,1.34-2.85,2-4.28.25-.55.56-1,1.26-1s1,.48,1.26,1c.64,1.37,1.31,2.72,1.91,4.1a1.44,1.44,0,0,0,1.28,1c1.38.16,2.76.4,4.13.6.62.09,1.22.23,1.44.91s-.15,1.1-.58,1.53C48.47,35.83,47.4,37,46.3,38.06A1.16,1.16,0,0,0,46,39.18c.31,1.68.57,3.38.83,5.07A1.18,1.18,0,0,1,45.63,45.73ZM36.27,41.8c0,.35.11.43.48.23.81-.46,1.64-.88,2.43-1.36a1.69,1.69,0,0,1,1.89,0c.78.46,1.58.88,2.37,1.32.14.07.29.22.44.1s.09-.31.06-.46c-.15-.94-.29-1.88-.47-2.81A1.88,1.88,0,0,1,44,36.94c.69-.65,1.34-1.35,2-2,.12-.13.34-.24.26-.45s-.32-.14-.49-.17c-.87-.14-1.74-.3-2.61-.4a1.8,1.8,0,0,1-1.6-1.14c-.35-.86-.77-1.69-1.17-2.52-.07-.14-.11-.35-.29-.37s-.27.23-.34.39c-.4.81-.81,1.62-1.15,2.45A1.82,1.82,0,0,1,37,33.89c-.89.11-1.79.27-2.68.41-.15,0-.36,0-.41.18s.13.28.24.39c.67.68,1.31,1.39,2,2a1.91,1.91,0,0,1,.6,1.94C36.57,39.81,36.44,40.77,36.27,41.8Z"/><path class="cls-1" d="M20,31.15c0-.72,0-1.44,0-2.16a1.09,1.09,0,0,1,1.18-1.17c1.49,0,3,0,4.45,0A1.08,1.08,0,0,1,26.79,29c0,1.51,0,3,0,4.52a1,1,0,0,1-1.1,1.1c-1.51,0-3,0-4.52,0A1.09,1.09,0,0,1,20,33.44C20,32.68,20,31.91,20,31.15Zm4.45.05c0-1.06,0-1.06-1-1.06s-1.11,0-1.11,1,0,1.09,1,1.09S24.46,32.26,24.46,31.2Z"/><path class="cls-1" d="M56.86,34.6c-.72,0-1.44,0-2.16,0a1.13,1.13,0,0,1-1.26-1.24c0-1.44,0-2.87,0-4.31a1.12,1.12,0,0,1,1.21-1.23c1.46,0,2.92,0,4.38,0a1.11,1.11,0,0,1,1.19,1.23c0,1.44,0,2.88,0,4.31A1.13,1.13,0,0,1,59,34.59C58.25,34.61,57.55,34.6,56.86,34.6Zm0-4.46c-1.12,0-1.12,0-1.12.95,0,1.17,0,1.17,1,1.17,1.16,0,1.16,0,1.16-1S57.89,30.14,56.89,30.14Z"/><path class="cls-1" d="M8.86,42.31c0-.7,0-1.39,0-2.09A1.12,1.12,0,0,1,10.11,39c1.43,0,2.87,0,4.3,0a1.13,1.13,0,0,1,1.24,1.27c0,1.41,0,2.82,0,4.24a1.15,1.15,0,0,1-1.31,1.27H10.17c-.9,0-1.29-.43-1.31-1.35C8.85,43.7,8.86,43,8.86,42.31Zm3.42-1c-1.08,0-1.08,0-1.08,1s0,1.13,1,1.14,1.12,0,1.12-1S13.32,41.29,12.28,41.28Z"/><path class="cls-1" d="M23.39,45.74c-.71,0-1.43,0-2.15,0A1.11,1.11,0,0,1,20,44.53q0-2.19,0-4.38A1.11,1.11,0,0,1,21.25,39c1.44,0,2.88,0,4.31,0a1.11,1.11,0,0,1,1.23,1.2q0,2.19,0,4.38a1.13,1.13,0,0,1-1.24,1.2Zm-.06-2.33c1.13,0,1.13,0,1.13-1s0-1.1-1-1.11c-1.16,0-1.16,0-1.16,1C22.34,43.4,22.34,43.4,23.33,43.41Z"/><path class="cls-1" d="M56.82,39c.71,0,1.43,0,2.15,0a1.14,1.14,0,0,1,1.25,1.26c0,1.44,0,2.87,0,4.31A1.11,1.11,0,0,1,59,45.73q-2.19,0-4.38,0a1.09,1.09,0,0,1-1.17-1.18c0-1.48,0-3,0-4.45A1.08,1.08,0,0,1,54.59,39c.74,0,1.48,0,2.23,0Zm-1,3.39c0,1.06,0,1.06,1,1.07s1.11,0,1.11-1,0-1.09-1-1.1S55.77,41.28,55.77,42.34Z"/><path class="cls-1" d="M12.27,56.88c-.72,0-1.44,0-2.15,0a1.14,1.14,0,0,1-1.25-1.26c0-1.43,0-2.87,0-4.31a1.1,1.1,0,0,1,1.22-1.21q2.19,0,4.38,0a1.09,1.09,0,0,1,1.17,1.18c0,1.46,0,2.92,0,4.38a1.13,1.13,0,0,1-1.22,1.22H12.27Zm1.05-3.33c0-1.12,0-1.12-1-1.12-1.17,0-1.17,0-1.17,1,0,1.16,0,1.16,1,1.16C13.32,54.55,13.32,54.55,13.32,53.55Z"/><path class="cls-1" d="M26.8,53.56c0,.67,0,1.34,0,2a1.15,1.15,0,0,1-1.27,1.31c-1.41,0-2.83,0-4.24,0A1.15,1.15,0,0,1,20,55.57q0-2.09,0-4.17c0-.9.42-1.3,1.34-1.3,1.37,0,2.74,0,4.1,0,.94,0,1.33.41,1.35,1.37Zm-3.4-1.13c-1.06,0-1.06,0-1.06,1s0,1.11,1,1.11,1.09,0,1.09-1S24.46,52.43,23.4,52.43Z"/><path class="cls-1" d="M34.61,50.09c.69,0,1.39,0,2.08,0a1.11,1.11,0,0,1,1.24,1.19q0,2.19,0,4.38a1.11,1.11,0,0,1-1.22,1.21c-1.44,0-2.88,0-4.31,0a1.13,1.13,0,0,1-1.25-1.26c0-1.42,0-2.83,0-4.25a1.14,1.14,0,0,1,1.3-1.27C33.17,50.08,33.89,50.09,34.61,50.09Zm-.07,4.46c1.06,0,1.06,0,1.07-1s0-1.11-1-1.11-1.1,0-1.1,1S33.48,54.55,34.54,54.55Z"/><path class="cls-1" d="M45.72,50.09c.7,0,1.39,0,2.09,0a1.13,1.13,0,0,1,1.27,1.23c0,1.44,0,2.88,0,4.31a1.13,1.13,0,0,1-1.27,1.24c-1.41,0-2.83,0-4.24,0a1.15,1.15,0,0,1-1.27-1.31q0-2.09,0-4.17c0-.9.42-1.29,1.34-1.3C44.33,50.08,45,50.09,45.72,50.09Zm-1.09,3.4c0,1.06,0,1.06,1,1.06s1.11,0,1.11-1,0-1.09-1-1.09S44.63,52.43,44.63,53.49Z"/><path class="cls-1" d="M56.82,56.88c-.72,0-1.44,0-2.16,0a1.12,1.12,0,0,1-1.22-1.22c0-1.46,0-2.92,0-4.38a1.09,1.09,0,0,1,1.17-1.18c1.48,0,3,0,4.45,0a1.09,1.09,0,0,1,1.15,1.14c0,1.48,0,3,0,4.45A1.11,1.11,0,0,1,59,56.88C58.3,56.9,57.56,56.88,56.82,56.88Zm1.07-3.43c0-1,0-1-1-1s-1.08,0-1.08,1.06,0,1.06,1.08,1.06S57.89,54.55,57.89,53.45Z"/></g></g></g></svg>