<svg xmlns="http://www.w3.org/2000/svg" viewBox="0 0 56.44 56.49"><defs><style>.cls-1,.cls-2{fill:#fff;}.cls-2{stroke:#fff;stroke-miterlimit:10;}</style></defs><title>Menu 4</title><g id="Layer_2" data-name="Layer 2"><g id="Capa_1" data-name="Capa 1"><g id="a0EOfH.tif"><path class="cls-1" d="M56.15,21.7a1.34,1.34,0,0,1-1.23.59c-3.76,0-7.53,0-11.29,0a2.68,2.68,0,0,1-2.76-2.9c0-1,0-2.05,0-3.08,0-.61-.2-.77-.78-.76q-3.37,0-6.74,0c-.58,0-.74.18-.74.75q0,11.85,0,23.71a4.91,4.91,0,0,1,0,.77.87.87,0,0,1-.93.81.84.84,0,0,1-.85-.82,4.92,4.92,0,0,1,0-.77V3c0-1-.21-1.12-1.16-1a.38.38,0,0,0-.35.4c0,.2,0,.39,0,.59V42.29c0,.8.09.88.9.77a14.8,14.8,0,0,0,4.47-1.29A15,15,0,0,0,43,31.67l.08-.29c.19-.61.62-.92,1.11-.8a.93.93,0,0,1,.64,1.22,14.08,14.08,0,0,1-1.34,3.78c-2.85,5.39-7.3,8.63-13.35,9.28a16.23,16.23,0,0,1-15-6.28A16.37,16.37,0,0,1,11.49,29,17,17,0,0,1,24.34,11.69a3,3,0,0,1,.41-.08.9.9,0,0,1,1.11.71.89.89,0,0,1-.75,1,15.87,15.87,0,0,0-3.55,1.29,14.83,14.83,0,0,0-8.17,11.61A15,15,0,0,0,26.12,43c1.29.18,1.29.18,1.29-1.08V2c0-.63-.05-1.28.58-1.7H44.08a2.82,2.82,0,0,1,2,2.87q0,6.48,0,13a2.65,2.65,0,0,1-1.86,2.66,4.72,4.72,0,0,1-.75.14.77.77,0,0,0,0,1.54,2.42,2.42,0,0,0,.47,0h8.87c.17,0,.4.1.49-.09s-.12-.31-.22-.44c-1.11-1.49-2.23-3-3.34-4.45-.52-.71-.53-1,0-1.68L53,9.4c.11-.14.36-.28.24-.49s-.33-.08-.5-.08H48c-.71,0-1.16-.37-1.16-.92S47.22,7,47.94,7h7a1.19,1.19,0,0,1,1.18.64v.59l-4.48,6c-.17.22-.35.41-.11.72,1.54,2,3.06,4,4.59,6.06Zm-17.65-8h0c1.8,0,3.59,0,5.38,0,.41,0,.4-.18.4-.46q0-5.1,0-10.22c0-.69-.29-1-1-1-3.37,0-6.74,0-10.11,0-.45,0-.58.17-.58.6,0,3.49,0,7,0,10.46,0,.47.16.61.62.61C35,13.73,36.75,13.74,38.5,13.74Zm4.79,1.83c-.37-.06-.69.06-.58.55s-.34.91.31,1,1.22-.3,1.24-.78S43.92,15.59,43.29,15.57Z"/><path class="cls-2" d="M.5,28.1A27.64,27.64,0,0,1,9.2,7.93,27.23,27.23,0,0,1,24.61.52c.69-.1,1.18.21,1.26.75s-.32,1-1,1.06a25.53,25.53,0,0,0-15,7.54,25.38,25.38,0,0,0-7.11,14A25,25,0,0,0,5.3,40.1c4.06,7.52,10.32,12.2,18.78,13.61A25.85,25.85,0,0,0,52.6,37.48a24.8,24.8,0,0,0,1.51-5.88c.09-.73.54-1.14,1.1-1s.8.57.71,1.24A27.24,27.24,0,0,1,54.3,38.1,27.21,27.21,0,0,1,37.21,54.43a26.54,26.54,0,0,1-22.63-2.2A27.29,27.29,0,0,1,.91,32.75,24.15,24.15,0,0,1,.5,28.1Z"/></g></g></g></svg>